<svg width="90" height="33" viewBox="0 0 90 33" fill="none" xmlns="http://www.w3.org/2000/svg">
<path d="M0.32 4H13.04C16.08 4 18.76 4.58667 21.08 5.76C23.4267 6.90667 25.24 8.53333 26.52 10.64C27.8267 12.7467 28.48 15.2 28.48 18C28.48 20.8 27.8267 23.2533 26.52 25.36C25.24 27.4667 23.4267 29.1067 21.08 30.28C18.76 31.4267 16.08 32 13.04 32H0.32V4ZM12.72 26.68C15.52 26.68 17.7467 25.9067 19.4 24.36C21.08 22.7867 21.92 20.6667 21.92 18C21.92 15.3333 21.08 13.2267 19.4 11.68C17.7467 10.1067 15.52 9.32 12.72 9.32H6.8V26.68H12.72ZM41.2069 10.16C43.8735 10.16 46.0202 10.96 47.6469 12.56C49.3002 14.16 50.1269 16.5333 50.1269 19.68V32H43.8869V20.64C43.8869 18.9333 43.5135 17.6667 42.7669 16.84C42.0202 15.9867 40.9402 15.56 39.5269 15.56C37.9535 15.56 36.7002 16.0533 35.7669 17.04C34.8335 18 34.3669 19.44 34.3669 21.36V32H28.1269V2.32H34.3669V12.72C35.1935 11.8933 36.1935 11.2667 37.3669 10.84C38.5402 10.3867 39.8202 10.16 41.2069 10.16ZM50.9831 10.48H57.2231V32H50.9831V10.48ZM54.1031 7.48C52.9565 7.48 52.0231 7.14667 51.3031 6.48C50.5831 5.81333 50.2231 4.98666 50.2231 4C50.2231 3.01333 50.5831 2.18667 51.3031 1.52C52.0231 0.853331 52.9565 0.519998 54.1031 0.519998C55.2498 0.519998 56.1831 0.839998 56.9031 1.48C57.6231 2.12 57.9831 2.92 57.9831 3.88C57.9831 4.92 57.6231 5.78667 56.9031 6.48C56.1831 7.14667 55.2498 7.48 54.1031 7.48ZM64.1744 13.32C64.921 12.28 65.921 11.4933 67.1744 10.96C68.4544 10.4267 69.921 10.16 71.5744 10.16V15.92C70.881 15.8667 70.4144 15.84 70.1744 15.84C68.3877 15.84 66.9877 16.3467 65.9744 17.36C64.961 18.3467 64.4544 19.84 64.4544 21.84V32H58.2144V10.48H64.1744V13.32ZM79.0475 10.16C82.3808 10.16 84.9408 10.96 86.7275 12.56C88.5142 14.1333 89.4075 16.52 89.4075 19.72V32H83.5675V29.32C82.3942 31.32 80.2075 32.32 77.0075 32.32C75.3542 32.32 73.9142 32.04 72.6875 31.48C71.4875 30.92 70.5675 30.1467 69.9275 29.16C69.2875 28.1733 68.9675 27.0533 68.9675 25.8C68.9675 23.8 69.7142 22.2267 71.2075 21.08C72.7275 19.9333 75.0608 19.36 78.2075 19.36H83.1675C83.1675 18 82.7542 16.96 81.9275 16.24C81.1008 15.4933 79.8608 15.12 78.2075 15.12C77.0608 15.12 75.9275 15.3067 74.8075 15.68C73.7142 16.0267 72.7808 16.5067 72.0075 17.12L69.7675 12.76C70.9408 11.9333 72.3408 11.2933 73.9675 10.84C75.6208 10.3867 77.3142 10.16 79.0475 10.16ZM78.5675 28.12C79.6342 28.12 80.5808 27.88 81.4075 27.4C82.2342 26.8933 82.8208 26.16 83.1675 25.2V23H78.8875C76.3275 23 75.0475 23.84 75.0475 25.52C75.0475 26.32 75.3542 26.96 75.9675 27.44C76.6075 27.8933 77.4742 28.12 78.5675 28.12Z" fill="url(#paint0_linear_3_2)"/>
<defs>
<linearGradient id="paint0_linear_3_2" x1="-3" y1="19.3846" x2="91.08" y2="19.3846" gradientUnits="userSpaceOnUse">
<stop stop-color="#FFD500"/>
<stop offset="1" stop-color="#FFA800"/>
</linearGradient>
</defs>
</svg>
