<svg width="40" height="40" viewBox="0 0 40 40" fill="none" xmlns="http://www.w3.org/2000/svg">
<path fill-rule="evenodd" clip-rule="evenodd" d="M11.6667 5C7.98479 5 5.00002 7.98477 5.00002 11.6667V28.3333C5.00002 32.0152 7.98479 35 11.6667 35H28.3334C32.0152 35 35 32.0152 35 28.3333V11.6667C35 7.98477 32.0152 5 28.3334 5H11.6667ZM1.66669 11.6667C1.66669 6.14382 6.14384 1.66666 11.6667 1.66666H28.3334C33.8562 1.66666 38.3334 6.14382 38.3334 11.6667V28.3333C38.3334 33.8562 33.8562 38.3333 28.3334 38.3333H11.6667C6.14384 38.3333 1.66669 33.8562 1.66669 28.3333V11.6667Z" fill="white"/>
<path fill-rule="evenodd" clip-rule="evenodd" d="M20.8055 14.982C19.7652 14.8277 18.7028 15.0054 17.7693 15.4898C16.8358 15.9742 16.0788 16.7405 15.6059 17.6799C15.1331 18.6193 14.9685 19.6839 15.1356 20.7222C15.3027 21.7606 15.7929 22.7198 16.5366 23.4634C17.2802 24.2071 18.2394 24.6973 19.2778 24.8644C20.3161 25.0315 21.3807 24.8669 22.3201 24.3941C23.2595 23.9212 24.0259 23.1642 24.5102 22.2307C24.9946 21.2972 25.1723 20.2348 25.018 19.1945C24.8607 18.1333 24.3662 17.1509 23.6076 16.3924C22.8491 15.6338 21.8667 15.1393 20.8055 14.982ZM16.234 12.531C17.7899 11.7237 19.5606 11.4276 21.2945 11.6847C23.0631 11.947 24.7004 12.7711 25.9647 14.0353C27.2289 15.2996 28.053 16.9369 28.3153 18.7055C28.5724 20.4394 28.2763 22.2101 27.469 23.766C26.6617 25.3218 25.3844 26.5835 23.8187 27.3715C22.253 28.1596 20.4787 28.4339 18.7482 28.1554C17.0177 27.8769 15.419 27.0599 14.1796 25.8204C12.9401 24.581 12.1231 22.9824 11.8446 21.2518C11.5661 19.5213 11.8404 17.747 12.6285 16.1813C13.4165 14.6156 14.6782 13.3383 16.234 12.531Z" fill="white"/>
<path fill-rule="evenodd" clip-rule="evenodd" d="M27.5 10.8333C27.5 9.91286 28.2462 9.16666 29.1667 9.16666H29.1833C30.1038 9.16666 30.85 9.91286 30.85 10.8333C30.85 11.7538 30.1038 12.5 29.1833 12.5H29.1667C28.2462 12.5 27.5 11.7538 27.5 10.8333Z" fill="white"/>
</svg>
